<svg width="1440" height="833" viewBox="0 0 1440 833" fill="none" xmlns="http://www.w3.org/2000/svg">
<path d="M894.245 2.44563C891.105 5.79761 888.383 17.4248 889.953 20.4625C890.686 21.6147 891 24.024 890.791 25.7C890.477 28.5282 890.058 28.7377 885.138 29.2614C879.381 29.8899 874.252 32.6134 874.252 35.0227C874.252 37.2224 872.578 36.9081 870.065 34.2894C867.553 31.5659 867.344 28.6329 869.647 27.376C871.636 26.2237 873.415 18.577 872.578 15.1203C871.74 11.6636 867.344 8.3116 863.68 8.3116C856.563 8.3116 851.957 18.0533 854.993 26.7475C855.725 28.9472 856.039 31.1469 855.725 31.6707C855.097 32.7182 844.421 37.6414 842.85 37.6414C842.327 37.6414 840.234 36.1749 838.14 34.3941C834.581 31.2517 833.43 27.8997 835.523 26.6427C837.407 25.4905 836.779 17.2153 834.686 15.3298C831.964 12.9206 826.836 13.1301 824.533 15.644C822.544 17.8438 821.811 26.6427 823.277 30.8327C823.905 32.5087 823.381 33.2419 820.66 34.4989C817.729 35.8606 816.996 37.2224 813.856 46.3356C810.402 56.8105 809.879 61.7337 810.402 77.7603C810.507 81.6361 809.983 86.5593 809.25 88.759C807.576 93.4727 807.576 115.575 809.25 117.565C810.611 119.346 808.832 121.441 805.901 121.441C804.75 121.441 801.609 123.745 798.888 126.469C795.957 129.506 790.828 133.068 786.432 135.163L779.105 138.724L779 180.31V222H796.062L813.5 221.5L819.5 212.5C822.536 207.577 828.72 194.346 834.058 182.405L843.897 160.722L845.572 147.104C847.142 133.906 848.817 125.84 851.015 120.393C853.108 115.365 852.48 134.849 850.282 142.914C846.828 155.484 845.677 164.388 847.247 166.169C847.875 167.007 848.712 168.683 848.817 169.94C849.026 171.197 849.968 172.977 850.806 173.92C852.166 175.491 852.271 176.434 851.224 179.472C850.073 182.929 844.944 188.48 842.85 188.48C841.804 188.48 838.375 191.878 825.5 210L817.729 222H834.267H850.701L860.331 206.078C868.809 192.147 869.856 189.947 868.705 188.061C867.135 185.128 864.936 176.853 865.46 175.491C865.669 174.863 867.03 166.797 868.391 157.579C871.217 138.515 874.566 128.249 877.916 128.249C879.591 128.249 880.009 128.878 879.8 131.392C879.695 133.068 879.277 139.039 879.067 144.381C878.439 155.799 876.764 167.216 874.671 173.187C873.834 175.387 873.206 178.739 873.206 180.729C873.206 182.614 872.787 184.5 872.159 184.814C871.636 185.128 871.112 187.433 871.112 189.842C871.112 195.079 868.891 203.774 863.5 210.687C858.109 217.601 857 220.5 858.5 221.5C859.5 223.5 868.495 222 928.054 222H1003V203.774C1003 193.299 1010.5 191 1002.06 185.128C1001.43 185.024 994.94 180.31 987.404 174.863C972.54 163.969 970.865 161.56 973.064 153.913C973.587 151.923 974.215 143.752 974.32 135.687C974.634 124.06 974.948 120.812 976.308 119.346C977.669 117.775 977.983 115.575 977.669 108.452C977.46 101.119 977.669 99.3387 978.925 98.9197C981.123 98.1864 988.45 86.245 989.078 82.1598C989.393 80.3791 989.078 76.2939 988.45 73.0466C986.252 62.6765 986.043 61.21 985.834 57.5437C985.729 54.4013 985.206 53.668 981.542 51.992C974.006 48.4306 973.587 47.6973 973.796 38.2699C973.901 28.4235 973.482 26.8522 969.923 25.1762C966.26 23.5002 963.852 23.7097 961.026 26.0142C958.933 27.6902 958.619 28.8425 958.828 33.4514C958.933 36.4892 959.456 39.5269 959.979 40.1554C961.445 42.0408 959.351 45.9166 956.211 47.1736C952.966 48.4306 942.708 47.9068 941.243 46.4403C940.72 45.9166 940.824 42.6694 941.557 38.3746C942.813 30.5184 942.29 28.6329 938.103 26.4332C931.404 23.0812 926.17 31.1469 927.845 42.7741C928.054 44.1358 927.636 45.4976 926.903 45.7071C926.17 45.9166 925.542 44.8691 925.333 43.2978C925.123 40.9933 923.553 39.5269 917.378 35.7559C907.957 30.0994 906.701 28.1092 909.841 23.7097C911.516 21.51 912.353 18.6818 912.667 14.2823C913.086 6.94986 911.725 4.22638 906.387 1.60765C901.153 -0.801575 897.071 -0.48735 894.245 2.44563ZM978.611 81.8456C978.297 82.6836 977.983 82.3693 977.983 81.2171C977.878 80.0648 978.193 79.4363 978.507 79.8553C978.821 80.1696 978.925 81.1123 978.611 81.8456ZM832.383 97.3485C832.802 97.3485 833.011 98.2912 832.697 99.4434C832.383 100.596 833.011 102.795 833.953 104.367C836.151 107.614 836.256 118.822 834.372 134.639L833.221 144.171L812.705 152.447C801.505 156.951 791.875 160.931 791.351 161.036C790.933 161.245 790.828 160.617 791.142 159.674C791.561 158.732 794.282 156.427 797.213 154.542C800.144 152.656 806.529 147.419 811.449 143.019C816.368 138.62 820.869 135.058 821.602 135.058C822.23 135.058 823.067 134.639 823.486 134.115C824.114 132.963 825.893 120.917 828.929 96.8247C829.557 91.9015 829.662 91.7968 830.499 94.4155C831.127 96.0915 831.86 97.3485 832.383 97.3485ZM930.88 130.973C931.927 140.4 931.927 142.705 930.566 146.685C928.996 151.19 906.91 183.348 901.886 188.48C899.269 191.099 899.269 191.099 902.305 184.29C904.084 180.519 908.166 171.825 911.411 164.912C914.761 157.998 917.796 150.247 918.32 147.628C918.738 145.009 919.68 139.877 920.308 136.106C920.936 132.335 921.879 127.202 922.402 124.583C922.821 121.965 924.077 116.413 925.123 112.118L927.112 104.471L928.368 112.118C929.101 116.413 930.252 124.898 930.88 130.973ZM943.964 123.326C943.127 127.202 941.871 135.477 941.138 141.657C940.196 149.723 939.359 153.704 937.998 155.275C936.114 157.579 936.114 157.579 937.056 154.437C938.836 148.466 940.51 131.392 940.301 120.917L940.092 110.547L942.708 113.375C945.43 116.308 945.43 116.308 943.964 123.326ZM963.434 126.364C963.748 129.192 963.538 134.953 963.015 139.248C962.387 144.381 962.492 148.571 963.12 151.504C963.748 153.913 964.271 158.208 964.271 160.931C964.271 165.959 964.062 166.378 950.036 183.033C942.185 192.461 935.486 199.793 935.172 199.479C933.602 197.908 933.811 182.719 935.486 175.91C936.951 169.94 937.893 168.159 940.824 165.959C942.813 164.493 944.383 162.607 944.383 161.769C944.383 160.931 945.535 158.522 947 156.427C948.465 154.332 949.617 151.085 949.617 149.304C949.617 147.523 950.559 143.124 951.606 139.562C952.757 135.896 953.908 130.659 954.327 127.83C954.955 122.907 955.269 122.593 958.305 122.174C960.189 121.965 961.968 121.65 962.282 121.65C962.701 121.546 963.224 123.641 963.434 126.364ZM813.437 129.611C812.914 130.554 811.239 133.173 809.879 135.477C807.89 138.829 806.215 139.981 799.83 142.495C795.643 144.171 792.084 145.324 791.875 145.219C791.77 145.009 795.224 142.181 799.621 138.724C803.912 135.372 808.727 131.287 810.193 129.716C812.914 126.573 815.426 126.573 813.437 129.611ZM910.888 142.705C910.888 144.067 909.946 146.057 908.69 147.209C907.434 148.257 902.409 156.008 897.49 164.388C886.813 182.51 886.499 182.929 888.488 176.329C891.419 166.797 894.14 153.389 894.14 148.047V142.705L901.781 141.657C905.864 141.134 909.632 140.61 910.155 140.505C910.574 140.4 910.888 141.448 910.888 142.705ZM831.755 162.502C830.394 165.016 821.602 177.482 820.555 178.529C818.776 180.31 824.114 171.511 828.092 166.169C831.546 161.455 833.43 159.674 831.755 162.502Z" fill="white"/>
<rect x="706" y="260.915" width="181" height="111" transform="rotate(-32 706 260.915)" fill="white"/>
<path d="M777.5 138.5C785.5 136.5 788.5 136 789 136L782.5 159.5L804 190L814.5 220L769.5 296.5L819 220H851.5L823 276L849 233.5L858.5 218L880.5 216L979 209L994 179.5L1511 554V638H1450L1150 372L1484 713L1450 767L1160 485L1464 795L1443 816L1000 331L1443 833H485H-18L-71 700L691 234L-18 658V638L614 266L-18 600V506L592 226L-18 485V398C194.667 331.333 714 164.7 730 159.5C750 153 767.5 141 777.5 138.5Z" fill="white"/>
</svg>
